<?xml version="1.0" encoding="UTF-8" standalone="no"?>
<!-- Created with Inkscape (http://www.inkscape.org/) -->

<svg
   xmlns:dc="http://purl.org/dc/elements/1.1/"
   xmlns:cc="http://creativecommons.org/ns#"
   xmlns:rdf="http://www.w3.org/1999/02/22-rdf-syntax-ns#"
   xmlns:svg="http://www.w3.org/2000/svg"
   xmlns="http://www.w3.org/2000/svg"
   xmlns:xlink="http://www.w3.org/1999/xlink"
   xmlns:sodipodi="http://sodipodi.sourceforge.net/DTD/sodipodi-0.dtd"
   xmlns:inkscape="http://www.inkscape.org/namespaces/inkscape"
   width="150"
   height="150"
   viewBox="0 0 39.687498 39.687501"
   version="1.1"
   id="svg8"
   sodipodi:docname="logo.svg"
   inkscape:version="0.92.2 (5c3e80d, 2017-08-06)">
  <defs
     id="defs2">
    <clipPath
       clipPathUnits="userSpaceOnUse"
       id="clipPath3721">
      <use
         x="0"
         y="0"
         xlink:href="#g3717"
         id="use3723"
         width="100%"
         height="100%"
         transform="matrix(0.97620453,0,0,1.2694583,14.496816,3.4374817)" />
    </clipPath>
  </defs>
  <sodipodi:namedview
     id="base"
     pagecolor="#ffffff"
     bordercolor="#666666"
     borderopacity="1.0"
     inkscape:pageopacity="0.0"
     inkscape:pageshadow="2"
     inkscape:zoom="1.979899"
     inkscape:cx="69.046512"
     inkscape:cy="24.289485"
     inkscape:document-units="px"
     inkscape:current-layer="g3717"
     showgrid="false"
     inkscape:window-width="1366"
     inkscape:window-height="705"
     inkscape:window-x="-8"
     inkscape:window-y="-8"
     inkscape:window-maximized="1"
     units="px" />
  <metadata
     id="metadata5">
    <rdf:RDF>
      <cc:Work
         rdf:about="">
        <dc:format>image/svg+xml</dc:format>
        <dc:type
           rdf:resource="http://purl.org/dc/dcmitype/StillImage" />
        <dc:title></dc:title>
      </cc:Work>
    </rdf:RDF>
  </metadata>
  <g
     inkscape:label="Capa 1"
     inkscape:groupmode="layer"
     id="layer1"
     transform="translate(0,-257.31248)">
    <flowRoot
       xml:space="preserve"
       id="flowRoot3699"
       style="font-style:normal;font-weight:normal;font-size:40px;line-height:1.25;font-family:sans-serif;letter-spacing:0px;word-spacing:0px;fill:#000000;fill-opacity:1;stroke:none"
       transform="scale(0.26458333)"><flowRegion
         id="flowRegion3701"><rect
           id="rect3703"
           width="200"
           height="188.57143"
           x="25.714285"
           y="22.519686" /></flowRegion><flowPara
         id="flowPara3705"></flowPara></flowRoot>    <g
       transform="matrix(1.0243755,0,0,0.78773761,-14.850183,-2.7078337)"
       style="image-rendering:auto"
       id="g3717"
       inkscape:label="Clip">
      <g
         id="g3835"
         transform="matrix(1.891477,0,0,2.9492089,-14.683584,301.63056)">
        <g
           transform="matrix(0.97620451,0,0,1.2694582,0.84447927,-4.8394992)"
           id="g3769">
          <ellipse
             id="path3757"
             cx="24.760223"
             cy="22.884974"
             rx="9.7328863"
             ry="1.3249539"
             style="fill:#ff0000;stroke-width:0.10775378" />
          <g
             style="image-rendering:auto"
             id="g3719"
             clip-path="url(#clipPath3721)"
             transform="matrix(1.0243755,0,0,0.7877376,-0.86506402,3.8122557)" />
        </g>
        <g
           id="text3713"
           style="font-style:normal;font-weight:normal;font-size:16.68027878px;line-height:1.25;font-family:sans-serif;letter-spacing:0px;word-spacing:0px;fill:#000000;fill-opacity:1;stroke:none;stroke-width:0.41700697"
           transform="scale(0.91076806,1.0979744)"
           aria-label="FB">
          <path
             inkscape:connector-curvature="0"
             id="path3771"
             style="font-style:normal;font-variant:normal;font-weight:bold;font-stretch:normal;line-height:20.85034752px;font-family:'Segoe Script';-inkscape-font-specification:'Segoe Script Bold';stroke-width:0.41700697"
             d="m 27.180732,11.08382 q 0,0.179183 -0.105881,0.350221 -0.105881,0.171038 -0.276919,0.301352 -0.162893,0.130315 -0.358365,0.211762 -0.195472,0.0733 -0.374655,0.0733 -0.154749,0 -0.374655,0 -0.211761,-0.0081 -0.423522,-0.0081 -0.203617,0 -0.3828,0 -0.179182,-0.0081 -0.268774,-0.0081 -0.179182,0 -0.431667,0.0081 -0.24434,0.0081 -0.513114,0.01629 -0.268774,0.0081 -0.529403,0.02443 -0.26063,0.0081 -0.447957,0.02443 -0.765599,0.04887 -1.229845,0.130314 -0.464246,0.08145 -0.749309,0.228051 0,0.439812 -0.0733,0.920347 -0.0733,0.480536 -0.162894,0.912203 -0.06516,0.317642 -0.114025,0.676007 -0.04887,0.350221 -0.0733,0.684152 0.154749,0.01629 0.350221,0.02443 0.203616,0.0081 0.415378,0.0081 0.268774,0 0.529403,0 0.260629,-0.0081 0.456101,-0.01629 0.08959,0 0.325787,-0.0081 0.24434,-0.01629 0.553838,-0.02443 0.309497,-0.01629 0.659718,-0.03258 0.35022,-0.01629 0.659718,-0.03258 0.317642,-0.01629 0.561982,-0.02443 0.24434,-0.0081 0.342076,-0.0081 0.154748,0 0.309497,0.0081 0.154749,0.0081 0.285063,0.02443 0.13846,0.0081 0.236196,0.02443 0.09774,0.0081 0.146604,0.02443 0.179183,0.04887 0.309497,0.162893 0.130315,0.105881 0.130315,0.350221 0,0.219906 -0.06516,0.374655 -0.06516,0.154748 -0.179183,0.268774 -0.105881,0.10588 -0.252485,0.187327 -0.138459,0.08145 -0.285063,0.146604 -0.252485,0.114025 -0.61085,0.162893 -0.350221,0.04887 -0.806322,0.04887 -0.285064,0 -0.643429,0.03258 -0.358365,0.03258 -0.700441,0.03258 -0.358366,0 -0.773744,0.01629 -0.407233,0.01629 -0.814467,0.04072 -0.399088,0.02443 -0.757454,0.04072 -0.358365,0.01629 -0.61085,0.01629 -0.219906,0.895913 -0.293208,1.897707 -0.0733,1.001795 -0.0733,1.97101 v 0.179183 q -0.114025,0.301352 -0.342076,0.48868 -0.219906,0.179182 -0.537548,0.179182 -0.374654,0 -0.602705,-0.08959 -0.219906,-0.08959 -0.342076,-0.260629 -0.114026,-0.179183 -0.154749,-0.447957 -0.03258,-0.276919 -0.03258,-0.643429 0.01629,-0.325786 0.03258,-0.627139 0.01629,-0.309497 0.05701,-0.618995 0.04887,-0.399089 0.130314,-0.871479 0.08145,-0.480536 0.171038,-0.985505 0.08959,-0.504969 0.179183,-1.009939 0.08959,-0.504969 0.154749,-0.961071 0.0081,-0.04072 0.04072,-0.285063 0.03258,-0.252485 0.08145,-0.602705 0.04887,-0.358366 0.09774,-0.765599 0.05701,-0.407233 0.105881,-0.757454 0.04887,-0.350221 0.08145,-0.586416 0.03258,-0.24434 0.04072,-0.268774 -0.114026,-0.03258 -0.211762,-0.12217 -0.08959,-0.08959 -0.154748,-0.203617 -0.05701,-0.12217 -0.08959,-0.252485 -0.03258,-0.138459 -0.03258,-0.260629 0,-0.521259 0.26063,-0.781888 0.260629,-0.260629 0.700441,-0.260629 0.390944,0 0.773744,-0.01629 0.390944,-0.01629 0.651573,-0.01629 0.301353,0 0.496825,0 0.195472,-0.0081 0.35022,-0.01629 0.162894,-0.01629 0.325787,-0.03258 0.162893,-0.01629 0.399089,-0.04887 h -0.0081 q 0.08145,-0.0081 0.171038,-0.01629 0.09774,-0.0081 0.203617,-0.02443 0.871479,-0.114026 1.718525,-0.154749 0.85519,-0.04072 1.653367,-0.04072 0.187328,0 0.3828,0.05701 0.203616,0.05701 0.36651,0.179183 0.162893,0.114025 0.260629,0.285063 0.105881,0.171038 0.105881,0.399089 z" />
          <path
             inkscape:connector-curvature="0"
             id="path3773"
             style="font-style:normal;font-variant:normal;font-weight:bold;font-stretch:normal;line-height:20.85034752px;font-family:'Segoe Script';-inkscape-font-specification:'Segoe Script Bold';stroke-width:0.41700697"
             d="m 38.966065,17.599554 q 0,0.390944 -0.0733,0.749309 -0.0733,0.350221 -0.219906,0.700442 -0.146604,0.342076 -0.36651,0.692297 -0.219906,0.35022 -0.513114,0.73302 -0.171038,0.211761 -0.35022,0.415378 -0.179183,0.195472 -0.350221,0.36651 -0.171038,0.171038 -0.333932,0.309497 -0.162893,0.138459 -0.293208,0.228051 -0.260629,0.187327 -0.676007,0.36651 -0.415378,0.187327 -0.936637,0.35022 -0.504969,0.162894 -0.985504,0.24434 -0.480536,0.08959 -0.895914,0.08959 -0.423523,0 -0.765599,-0.08145 -0.333931,-0.0733 -0.570126,-0.236195 -0.236196,-0.162894 -0.36651,-0.415378 -0.12217,-0.24434 -0.12217,-0.586416 0,-0.219906 0.09774,-0.399089 0.09774,-0.179183 0.260629,-0.301353 0.171038,-0.130314 0.390944,-0.195472 0.228051,-0.0733 0.480535,-0.0733 0.154749,0 0.26063,0.01629 0.114025,0.0081 0.211761,0.03258 0.09774,0.02443 0.187327,0.06516 0.09774,0.04072 0.219906,0.09774 0.390945,0.171038 0.602706,0.171038 0.105881,0 0.285063,-0.03258 0.187328,-0.04072 0.3828,-0.09774 0.195472,-0.06516 0.374654,-0.138459 0.179183,-0.0733 0.276919,-0.13846 0.317642,-0.219906 0.643429,-0.537548 0.325786,-0.325787 0.586416,-0.692297 0.268774,-0.374654 0.431667,-0.757454 0.171038,-0.390944 0.171038,-0.73302 0,-0.285063 -0.130315,-0.513114 -0.12217,-0.22805 -0.317642,-0.407233 -0.195472,-0.179183 -0.439812,-0.309497 -0.24434,-0.130315 -0.47239,-0.211762 -0.228051,-0.08145 -0.423523,-0.12217 -0.195472,-0.04072 -0.301353,-0.04072 -0.293208,0 -0.496824,0.02443 -0.203617,0.01629 -0.36651,0.05701 -0.154749,0.03258 -0.301353,0.08959 -0.138459,0.05701 -0.301353,0.130315 -0.195472,0.08959 -0.333931,0.130314 -0.13846,0.04072 -0.285064,0.04072 -0.203616,0 -0.374654,-0.06516 -0.171038,-0.0733 -0.293208,-0.187327 -0.114026,-0.114025 -0.179183,-0.260629 -0.06516,-0.146604 -0.06516,-0.293208 0,-0.268775 0.08145,-0.488681 0.08959,-0.219906 0.236196,-0.374654 0.146604,-0.162894 0.333931,-0.26063 0.187327,-0.10588 0.390944,-0.146604 0.114025,-0.02443 0.252485,-0.03258 0.146604,-0.0081 0.276918,-0.0081 0.13846,-0.0081 0.236196,-0.0081 0.105881,0 0.130315,-0.0081 0.179182,-0.105881 0.423522,-0.268774 0.252485,-0.162894 0.521259,-0.358366 0.268774,-0.203616 0.537548,-0.423522 0.268774,-0.219906 0.480535,-0.431668 0.219906,-0.219906 0.350221,-0.415378 0.130315,-0.195472 0.130315,-0.342076 0,-0.301353 -0.276919,-0.447957 -0.268774,-0.154748 -0.887769,-0.154748 -0.48868,0 -1.115819,0.09774 -0.618995,0.09774 -1.213556,0.285063 -0.252484,0.08145 -0.504969,0.195472 -0.252485,0.114026 -0.480535,0.24434 -0.219906,0.130315 -0.399089,0.276919 -0.179183,0.146604 -0.293208,0.293208 -0.02443,0.03258 -0.04072,0.162893 -0.01629,0.130315 -0.02443,0.374655 -0.0081,0.24434 -0.02443,0.618995 -0.0081,0.374654 -0.03258,0.904058 -0.01629,0.342076 -0.03258,0.561982 -0.0081,0.219906 -0.02443,0.415378 -0.01629,0.195472 -0.04072,0.407233 -0.02443,0.211762 -0.06516,0.545693 -0.06516,0.464246 -0.12217,0.887769 -0.04887,0.423522 -0.04887,0.741164 v 1.490475 q 0,0.806322 -0.301353,1.180976 -0.301353,0.36651 -0.887769,0.36651 -0.309497,0 -0.513114,-0.114025 -0.203617,-0.114025 -0.325787,-0.342076 -0.114025,-0.228051 -0.162893,-0.570127 -0.04072,-0.342076 -0.04072,-0.790032 0,-0.0081 0.02443,-0.179183 0.02443,-0.179183 0.05701,-0.439812 0.04072,-0.268774 0.08145,-0.586416 0.04887,-0.317642 0.08959,-0.602706 0.04072,-0.285063 0.06516,-0.504969 0.03258,-0.228051 0.04072,-0.301353 0.0081,-0.03258 0.02443,-0.24434 0.02443,-0.219906 0.05701,-0.521258 0.03258,-0.309498 0.06516,-0.659718 0.03258,-0.350221 0.06516,-0.659719 0.03258,-0.309497 0.05701,-0.529403 0.02443,-0.219906 0.02443,-0.260629 0.0733,-0.62714 0.0733,-0.74931 0,-0.08959 -0.01629,-0.203616 -0.01629,-0.114026 -0.04072,-0.228051 -0.01629,-0.12217 -0.03258,-0.211761 -0.01629,-0.09774 -0.01629,-0.130315 0,-0.317642 0.05701,-0.594561 0.05701,-0.276918 0.187327,-0.513114 0.325787,-0.627139 0.700442,-0.676007 0.236195,-0.03258 0.464246,-0.08959 0.236195,-0.06516 0.439812,-0.130314 1.018083,-0.325787 1.604499,-0.529404 0.594561,-0.203616 0.781888,-0.260629 0.244341,-0.0733 0.496825,-0.12217 0.252485,-0.057013 0.537548,-0.081447 0.285064,-0.032579 0.618995,-0.040723 0.342076,-0.016289 0.765599,-0.016289 0.260629,0 0.570126,0.089591 0.317642,0.089591 0.61085,0.24434 0.293208,0.154749 0.537549,0.36651 0.252484,0.203617 0.382799,0.439812 0.05701,0.09774 0.105881,0.252485 0.05701,0.146604 0.09774,0.309497 0.04887,0.162893 0.0733,0.325787 0.02443,0.154749 0.02443,0.276919 0,0.618994 -0.48868,1.270568 -0.480536,0.643428 -1.409028,1.425316 0.553837,0.171038 1.050662,0.456102 0.496825,0.285063 0.87148,0.651573 0.374654,0.36651 0.59456,0.781888 0.219906,0.415378 0.219906,0.838901 z" />
        </g>
      </g>
    </g>
  </g>
</svg>
